<svg xmlns="http://www.w3.org/2000/svg" xmlns:xlink="http://www.w3.org/1999/xlink" contentStyleType="text/css" data-diagram-type="DESCRIPTION" height="741.6667px" preserveAspectRatio="none" style="width:1416px;height:741px;" version="1.1" viewBox="0 0 1416 741" width="1416.6667px" zoomAndPan="magnify"><title>Ivy Ware Solutions || County Fair - Horse Races System || Components Diagram</title><defs><linearGradient id="guszxn0bbk3oz0" x1="50%" x2="50%" y1="0%" y2="100%"><stop offset="0%" stop-color="#FFFFFF"/><stop offset="100%" stop-color="#EEEEEE"/></linearGradient><linearGradient id="guszxn0bbk3oz1" x1="50%" x2="50%" y1="0%" y2="100%"><stop offset="0%" stop-color="#F18E3E"/><stop offset="100%" stop-color="#EC7211"/></linearGradient></defs><g><rect fill="url(#guszxn0bbk3oz0)" height="45.0846" id="_title" rx="4.1667" ry="4.1667" style="stroke:#EEEEEE;stroke-width:1.0417;" width="952.1993" x="224.942" y="5.2083"/><text fill="#EC7211" font-family="Verdana" font-size="20.8333" font-weight="bold" lengthAdjust="spacing" textLength="931.366" x="235.3587" y="34.963">Ivy Ware Solutions || County Fair - Horse Races System || Components Diagram</text><!--cluster fe--><g id="cluster_fe"><path d="M10.4167,62.793 L87.6526,62.793 A6.25,6.25 0 0 1 91.8193,66.9596 L99.1109,94.0104 L1008.3333,94.0104 A4.1667,4.1667 0 0 1 1012.5,98.1771 L1012.5,730.3138 A4.1667,4.1667 0 0 1 1008.3333,734.4805 L10.4167,734.4805 A4.1667,4.1667 0 0 1 6.25,730.3138 L6.25,66.9596 A4.1667,4.1667 0 0 1 10.4167,62.793 " fill="#FFFFFF" fill-opacity="0.00000" style="stroke:#4E5D6C;stroke-width:2.0833;"/><line style="stroke:#4E5D6C;stroke-width:2.0833;" x1="6.25" x2="99.1109" y1="94.0104" y2="94.0104"/><text fill="#4E5D6C" font-family="Verdana" font-size="12.5" font-weight="bold" lengthAdjust="spacing" textLength="68.9026" x="15.625" y="81.6874">Front End</text></g><!--cluster sb--><g id="cluster_sb"><path d="M43.75,277.3451 L135.6527,277.3451 A6.25,6.25 0 0 1 139.8193,281.5117 L147.111,308.5625 L540.625,308.5625 A4.1667,4.1667 0 0 1 544.7917,312.7292 L544.7917,696.9805 A4.1667,4.1667 0 0 1 540.625,701.1471 L43.75,701.1471 A4.1667,4.1667 0 0 1 39.5833,696.9805 L39.5833,281.5117 A4.1667,4.1667 0 0 1 43.75,277.3451 " fill="#FFFFFF" fill-opacity="0.00000" style="stroke:#4E5D6C;stroke-width:2.0833;"/><line style="stroke:#4E5D6C;stroke-width:2.0833;" x1="39.5833" x2="147.111" y1="308.5625" y2="308.5625"/><text fill="#4E5D6C" font-family="Verdana" font-size="12.5" font-weight="bold" lengthAdjust="spacing" textLength="83.5693" x="48.9583" y="296.2395">Sales Booth</text></g><!--cluster ot--><g id="cluster_ot"><path d="M582.2917,278.3451 L695.7825,278.3451 A6.25,6.25 0 0 1 699.9491,282.5117 L707.2408,309.5625 L983.3333,309.5625 A4.1667,4.1667 0 0 1 987.5,313.7292 L987.5,390.8138 A4.1667,4.1667 0 0 1 983.3333,394.9805 L582.2917,394.9805 A4.1667,4.1667 0 0 1 578.125,390.8138 L578.125,282.5117 A4.1667,4.1667 0 0 1 582.2917,278.3451 " fill="#FFFFFF" fill-opacity="0.00000" style="stroke:#4E5D6C;stroke-width:2.0833;"/><line style="stroke:#4E5D6C;stroke-width:2.0833;" x1="578.125" x2="707.2408" y1="309.5625" y2="309.5625"/><text fill="#4E5D6C" font-family="Verdana" font-size="12.5" font-weight="bold" lengthAdjust="spacing" textLength="105.1575" x="587.5" y="297.2395">Operator Tools</text></g><!--cluster be--><g id="cluster_be"><path d="M1169.7917,429.3555 L1242.5476,429.3555 A6.25,6.25 0 0 1 1246.7143,433.5221 L1254.0059,460.5729 L1405.2083,460.5729 A4.1667,4.1667 0 0 1 1409.375,464.7396 L1409.375,695.4596 A4.1667,4.1667 0 0 1 1405.2083,699.6263 L1169.7917,699.6263 A4.1667,4.1667 0 0 1 1165.625,695.4596 L1165.625,433.5221 A4.1667,4.1667 0 0 1 1169.7917,429.3555 " fill="#FFFFFF" fill-opacity="0.00000" style="stroke:#4E5D6C;stroke-width:2.0833;"/><line style="stroke:#4E5D6C;stroke-width:2.0833;" x1="1165.625" x2="1254.0059" y1="460.5729" y2="460.5729"/><text fill="#4E5D6C" font-family="Verdana" font-size="12.5" font-weight="bold" lengthAdjust="spacing" textLength="64.4226" x="1175" y="448.2499">Back End</text></g><!--entity cus--><g id="elem_cus"><ellipse cx="536.4624" cy="115.918" fill="url(#guszxn0bbk3oz1)" rx="8.3333" ry="8.3333" style="stroke:#EC7211;stroke-width:1.0417;"/><path d="M536.4624,124.2513 L536.4624,152.3763 M522.9207,132.5846 L550.0041,132.5846 M536.4624,152.3763 L522.9207,168.0013 M536.4624,152.3763 L550.0041,168.0013 " fill="#FFFFFF" fill-opacity="0.00000" style="stroke:#EC7211;stroke-width:1.0417;"/><text fill="#4E5D6C" font-family="Verdana" font-size="12.5" lengthAdjust="spacing" textLength="58.8623" x="507.0313" y="186.8958">customer</text></g><!--entity adm--><g id="elem_adm"><ellipse cx="660.4165" cy="115.918" fill="url(#guszxn0bbk3oz1)" rx="8.3333" ry="8.3333" style="stroke:#EC7211;stroke-width:1.0417;"/><path d="M660.4165,124.2513 L660.4165,152.3763 M646.8748,132.5846 L673.9581,132.5846 M660.4165,152.3763 L646.8748,168.0013 M660.4165,152.3763 L673.9581,168.0013 " fill="#FFFFFF" fill-opacity="0.00000" style="stroke:#EC7211;stroke-width:1.0417;"/><text fill="#4E5D6C" font-family="Verdana" font-size="12.5" lengthAdjust="spacing" textLength="39.1663" x="640.8333" y="186.8958">admin</text></g><!--entity cas--><g id="elem_cas"><ellipse cx="866.6661" cy="115.918" fill="url(#guszxn0bbk3oz1)" rx="8.3333" ry="8.3333" style="stroke:#EC7211;stroke-width:1.0417;"/><path d="M866.6661,124.2513 L866.6661,152.3763 M853.1245,132.5846 L880.2078,132.5846 M866.6661,152.3763 L853.1245,168.0013 M866.6661,152.3763 L880.2078,168.0013 " fill="#FFFFFF" fill-opacity="0.00000" style="stroke:#EC7211;stroke-width:1.0417;"/><text fill="#4E5D6C" font-family="Verdana" font-size="12.5" lengthAdjust="spacing" textLength="45.2698" x="844.0313" y="186.8958">cashier</text></g><g id="elem_b1"><ellipse cx="125.0001" cy="350.208" fill="url(#guszxn0bbk3oz1)" rx="60.4897" ry="20.7797" style="stroke:#EC7211;stroke-width:2.0833;"/><text fill="#FFFFFF" font-family="Verdana" font-size="12.5" lengthAdjust="spacing" textLength="58.2092" x="95.8955" y="352.4521">booth_01</text></g><g id="elem_b2"><ellipse cx="282.2918" cy="350.208" fill="url(#guszxn0bbk3oz1)" rx="60.4897" ry="20.7797" style="stroke:#EC7211;stroke-width:2.0833;"/><text fill="#FFFFFF" font-family="Verdana" font-size="12.5" lengthAdjust="spacing" textLength="58.2092" x="253.1871" y="352.4521">booth_02</text></g><g id="elem_b3"><ellipse cx="439.5834" cy="350.208" fill="url(#guszxn0bbk3oz1)" rx="60.4897" ry="20.7797" style="stroke:#EC7211;stroke-width:2.0833;"/><text fill="#FFFFFF" font-family="Verdana" font-size="12.5" lengthAdjust="spacing" textLength="58.2092" x="410.4788" y="352.4521">booth_03</text></g><g id="elem_lp"><ellipse cx="360.4186" cy="655.3643" fill="url(#guszxn0bbk3oz1)" rx="77.179" ry="20.7797" style="stroke:#EC7211;stroke-width:2.0833;"/><text fill="#FFFFFF" font-family="Verdana" font-size="12.5" lengthAdjust="spacing" textLength="81.8115" x="319.5128" y="657.6083">local printers</text></g><!--entity wsa--><g id="elem_wsa"><rect fill="#0000FF" height="56.2174" rx="4.1667" ry="4.1667" style="stroke:#EC7211;stroke-width:1.0417;" width="164.974" x="277.9271" y="473.1055"/><rect fill="#0000FF" height="10.4167" style="stroke:#EC7211;stroke-width:1.0417;" width="15.625" x="422.0677" y="478.3138"/><rect fill="#0000FF" height="2.0833" style="stroke:#EC7211;stroke-width:1.0417;" width="4.1667" x="419.9844" y="480.3971"/><rect fill="#0000FF" height="2.0833" style="stroke:#EC7211;stroke-width:1.0417;" width="4.1667" x="419.9844" y="484.5638"/><text fill="#FFFFFF" font-family="Verdana" font-size="12.5" lengthAdjust="spacing" textLength="112.8906" x="298.7604" y="510.7499">WEB SELLING APP</text></g><!--entity trp--><g id="elem_trp"><rect fill="#0000FF" height="56.2174" rx="4.1667" ry="4.1667" style="stroke:#EC7211;stroke-width:1.0417;" width="208.1807" x="762.5729" y="322.0951"/><rect fill="#0000FF" height="10.4167" style="stroke:#EC7211;stroke-width:1.0417;" width="15.625" x="949.9203" y="327.3034"/><rect fill="#0000FF" height="2.0833" style="stroke:#EC7211;stroke-width:1.0417;" width="4.1667" x="947.837" y="329.3867"/><rect fill="#0000FF" height="2.0833" style="stroke:#EC7211;stroke-width:1.0417;" width="4.1667" x="947.837" y="333.5534"/><text fill="#FFFFFF" font-family="Verdana" font-size="12.5" lengthAdjust="spacing" textLength="156.0974" x="783.4063" y="359.7395">Ticket Redemption Panel</text></g><!--entity ap--><g id="elem_ap"><rect fill="#0000FF" height="56.2174" rx="4.1667" ry="4.1667" style="stroke:#EC7211;stroke-width:1.0417;" width="130.3975" x="595.2188" y="322.0951"/><rect fill="#0000FF" height="10.4167" style="stroke:#EC7211;stroke-width:1.0417;" width="15.625" x="704.783" y="327.3034"/><rect fill="#0000FF" height="2.0833" style="stroke:#EC7211;stroke-width:1.0417;" width="4.1667" x="702.6996" y="329.3867"/><rect fill="#0000FF" height="2.0833" style="stroke:#EC7211;stroke-width:1.0417;" width="4.1667" x="702.6996" y="333.5534"/><text fill="#FFFFFF" font-family="Verdana" font-size="12.5" lengthAdjust="spacing" textLength="78.3142" x="616.0521" y="359.7395">Admin Panel</text></g><!--entity fa--><g id="elem_fa"><rect fill="#008000" height="56.2174" rx="4.1667" ry="4.1667" style="stroke:#EC7211;stroke-width:1.0417;" width="112.5509" x="1182.2708" y="473.1055"/><rect fill="#008000" height="10.4167" style="stroke:#EC7211;stroke-width:1.0417;" width="15.625" x="1273.9884" y="478.3138"/><rect fill="#008000" height="2.0833" style="stroke:#EC7211;stroke-width:1.0417;" width="4.1667" x="1271.905" y="480.3971"/><rect fill="#008000" height="2.0833" style="stroke:#EC7211;stroke-width:1.0417;" width="4.1667" x="1271.905" y="484.5638"/><text fill="#FFFFFF" font-family="Verdana" font-size="12.5" lengthAdjust="spacing" textLength="60.4675" x="1203.1042" y="510.7499">Flask App</text></g><!--entity db--><g id="elem_db"><path d="M1184.2708,638.1992 C1184.2708,627.7826 1221.8746,627.7826 1221.8746,627.7826 C1221.8746,627.7826 1259.4784,627.7826 1259.4784,638.1992 L1259.4784,672.5417 C1259.4784,682.9583 1221.8746,682.9583 1221.8746,682.9583 C1221.8746,682.9583 1184.2708,682.9583 1184.2708,672.5417 L1184.2708,638.1992 " fill="url(#guszxn0bbk3oz1)" style="stroke:#EC7211;stroke-width:1.0417;"/><path d="M1184.2708,638.1992 C1184.2708,648.6159 1221.8746,648.6159 1221.8746,648.6159 C1221.8746,648.6159 1259.4784,648.6159 1259.4784,638.1992 " fill="#FFFFFF" fill-opacity="0.00000" style="stroke:#EC7211;stroke-width:1.0417;"/><text fill="#4E5D6C" font-family="Verdana" font-size="12.5" lengthAdjust="spacing" textLength="43.9575" x="1199.8958" y="669.5937">SQLITE</text></g><!--entity api--><g id="elem_api"><ellipse cx="1088.5417" cy="655.3659" fill="#A7280E" rx="8.3333" ry="8.3333" style="stroke:#D13212;stroke-width:1.0417;"/><text fill="#4E5D6C" font-family="Verdana" font-size="12.5" lengthAdjust="spacing" textLength="92.3218" x="1042.3808" y="689.8853">HTTP/REST API</text></g><!--link b1 to wsa--><g id="link_b1_wsa"><path d="M151.6042,369.3242 C166.6354,379.4492 185.8333,392.2409 203.125,403.3138 C240.3854,427.1992 277.8452,450.2366 309.3765,469.3825 " fill="#FFFFFF" fill-opacity="0.00000" id="b1-to-wsa" style="stroke:#EC7211;stroke-width:3.125;"/><polygon fill="#EC7211" points="314.7188,472.6263,308.8679,464.199,310.2668,469.9231,304.5428,471.3221,314.7188,472.6263" style="stroke:#EC7211;stroke-width:3.125;"/></g><!--link b2 to wsa--><g id="link_b2_wsa"><path d="M292.6667,371.0221 C306.3646,397.1367 327.6496,437.7057 343.1079,467.1849 " fill="#FFFFFF" fill-opacity="0.00000" id="b2-to-wsa" style="stroke:#EC7211;stroke-width:3.125;"/><polygon fill="#EC7211" points="346.0104,472.7201,345.3467,462.4823,343.5916,468.1074,337.9665,466.3524,346.0104,472.7201" style="stroke:#EC7211;stroke-width:3.125;"/></g><!--link b3 to wsa--><g id="link_b3_wsa"><path d="M429.0729,371.0221 C415.1875,397.1367 393.6221,437.7227 377.945,467.2018 " fill="#FFFFFF" fill-opacity="0.00000" id="b3-to-wsa" style="stroke:#EC7211;stroke-width:3.125;"/><polygon fill="#EC7211" points="375.0104,472.7201,383.0911,466.3991,377.4559,468.1215,375.7335,462.4863,375.0104,472.7201" style="stroke:#EC7211;stroke-width:3.125;"/></g><!--link wsa to lp--><g id="link_wsa_lp"><path d="M360.4167,529.793 C360.4167,559.9284 360.4167,601.2409 360.4167,628.0221 " fill="#FFFFFF" fill-opacity="0.00000" id="wsa-to-lp" style="stroke:#EC7211;stroke-width:3.125;"/><polygon fill="#EC7211" points="360.4167,634.2721,364.5833,624.8971,360.4167,629.0638,356.25,624.8971,360.4167,634.2721" style="stroke:#EC7211;stroke-width:3.125;"/></g><!--link cus to sb--><g id="link_cus_sb"><path d="M535.0313,195.543 C534.7604,205.6471 534.5104,216.3451 534.375,226.3034 C534.1875,239.7409 534.2188,254.0052 534.3724,267.8757 C534.3916,269.6095 534.4127,271.3371 534.4356,273.0562 C534.447,273.9158 534.4588,274.7732 534.4711,275.6282 C534.4772,276.0557 534.3906,301.4507 534.397,301.8769 " fill="#FFFFFF" fill-opacity="0.00000" id="cus-to-sb" style="stroke:#EC7211;stroke-width:3.125;stroke-dasharray:7.0,7.0;"/><polygon fill="#EC7211" points="534.4898,308.1263,538.5168,298.6904,534.4124,302.9185,530.1844,298.8142,534.4898,308.1263" style="stroke:#EC7211;stroke-width:3.125;"/><text fill="#4E5D6C" font-family="Verdana" font-size="12.5" lengthAdjust="spacing" textLength="68.8171" x="540.625" y="244.1562">buys ticket</text></g><!--link adm to ap--><g id="link_adm_ap"><path d="M660.4167,195.1471 C660.4167,233.7201 660.4167,282.7305 660.4167,315.5117 " fill="#FFFFFF" fill-opacity="0.00000" id="adm-to-ap" style="stroke:#EC7211;stroke-width:3.125;stroke-dasharray:7.0,7.0;"/><polygon fill="#EC7211" points="660.4167,321.7617,664.5833,312.3867,660.4167,316.5534,656.25,312.3867,660.4167,321.7617" style="stroke:#EC7211;stroke-width:3.125;"/><text fill="#4E5D6C" font-family="Verdana" font-size="12.5" lengthAdjust="spacing" textLength="69.9219" x="666.6667" y="244.1562">runs report</text></g><!--link cas to trp--><g id="link_cas_trp"><path d="M866.6667,195.1471 C866.6667,233.7201 866.6667,282.7305 866.6667,315.5117 " fill="#FFFFFF" fill-opacity="0.00000" id="cas-to-trp" style="stroke:#EC7211;stroke-width:3.125;stroke-dasharray:7.0,7.0;"/><polygon fill="#EC7211" points="866.6667,321.7617,870.8333,312.3867,866.6667,316.5534,862.5,312.3867,866.6667,321.7617" style="stroke:#EC7211;stroke-width:3.125;"/><text fill="#4E5D6C" font-family="Verdana" font-size="12.5" lengthAdjust="spacing" textLength="93.8843" x="872.9167" y="244.1562">redeems ticket</text></g><!--link fa to db--><g id="link_fa_db"><path d="M1234.8396,536.0057 C1231.7979,563.7453 1228.5038,593.8198 1225.4934,621.2885 " fill="#FFFFFF" fill-opacity="0.00000" id="fa-db" style="stroke:#EC7211;stroke-width:3.125;"/><polygon fill="#EC7211" points="1235.5208,529.793,1230.3571,538.658,1234.9531,534.9703,1238.6408,539.5663,1235.5208,529.793" style="stroke:#EC7211;stroke-width:3.125;"/><polygon fill="#EC7211" points="1224.8125,627.5013,1229.9757,618.636,1225.3799,622.324,1221.692,617.7282,1224.8125,627.5013" style="stroke:#EC7211;stroke-width:3.125;"/><text fill="#4E5D6C" font-family="Verdana" font-size="12.5" lengthAdjust="spacing" textLength="161.7493" x="1237.5" y="578.427">r&amp;w ticket data (raw SQL)</text></g><!--link fa to api--><g id="link_fa_api"><path d="M1206.9864,534.243 C1172.0385,569.6805 1122.0766,620.3331 1100.8683,641.8331 " fill="#FFFFFF" fill-opacity="0.00000" id="fa-api" style="stroke:#EC7211;stroke-width:3.125;"/><polygon fill="#EC7211" points="1211.375,529.793,1201.8254,533.5423,1207.7179,533.5013,1207.7588,539.3938,1211.375,529.793" style="stroke:#EC7211;stroke-width:3.125;"/><polygon fill="#EC7211" points="1096.4792,646.2826,1106.0292,642.5344,1100.1368,642.5746,1100.0965,636.6822,1096.4792,646.2826" style="stroke:#EC7211;stroke-width:3.125;"/></g><!--link wsa to api--><g id="link_wsa_api"><path d="M405.3049,533.0965 C435.1278,552.3257 472.5,573.4492 513.5417,586.6159 C734.6354,657.5326 1018.6574,655.7155 1073.2407,654.6634 " fill="#FFFFFF" fill-opacity="0.00000" id="wsa-api" style="stroke:#EC7211;stroke-width:3.125;"/><polygon fill="#EC7211" points="400.0521,529.7096,405.6733,538.2918,404.4294,532.532,410.1892,531.2881,400.0521,529.7096" style="stroke:#EC7211;stroke-width:3.125;"/><polygon fill="#EC7211" points="1079.4896,654.543,1070.036,650.5577,1074.2822,654.6433,1070.1966,658.8895,1079.4896,654.543" style="stroke:#EC7211;stroke-width:3.125;"/><text fill="#4E5D6C" font-family="Verdana" font-size="12.5" lengthAdjust="spacing" textLength="109.4177" x="519.7917" y="578.427">purchase request</text></g><!--link trp to api--><g id="link_trp_api"><path d="M890.4417,383.7216 C938.4417,449.2945 1050.558,602.4479 1078.7976,641.0208 " fill="#FFFFFF" fill-opacity="0.00000" id="trp-api" style="stroke:#EC7211;stroke-width:3.125;"/><polygon fill="#EC7211" points="886.75,378.6784,888.9254,388.7043,889.8264,382.8811,895.6497,383.7821,886.75,378.6784" style="stroke:#EC7211;stroke-width:3.125;"/><polygon fill="#EC7211" points="1082.4896,646.0638,1080.3136,636.038,1079.4129,641.8613,1073.5896,640.9607,1082.4896,646.0638" style="stroke:#EC7211;stroke-width:3.125;"/><text fill="#4E5D6C" font-family="Verdana" font-size="12.5" lengthAdjust="spacing" textLength="113.3057" x="1003.125" y="506.052">validation request</text></g><!--link ap to api--><g id="link_ap_api"><path d="M675.9815,384.3576 C695.1377,422.868 731.9375,487.2409 784.375,529.3242 C883.4479,608.8346 1033.9483,643.3184 1073.2399,651.308 " fill="#FFFFFF" fill-opacity="0.00000" id="ap-api" style="stroke:#EC7211;stroke-width:3.125;"/><polygon fill="#EC7211" points="673.1979,378.7617,673.6427,389.0113,675.5176,383.425,681.1039,385.2999,673.1979,378.7617" style="stroke:#EC7211;stroke-width:3.125;"/><polygon fill="#EC7211" points="1079.3646,652.5534,1071.0078,646.6022,1074.2607,651.5156,1069.3473,654.7684,1079.3646,652.5534" style="stroke:#EC7211;stroke-width:3.125;"/><text fill="#4E5D6C" font-family="Verdana" font-size="12.5" lengthAdjust="spacing" textLength="116.6748" x="790.625" y="506.052">access report data</text></g><!--SRC=[lLN1Rjim3BthAzWCMDj3khMz3KCnftMQO46SsGPw76YRIupObYV93O8q_pvHZjDasx6f3eP8FbcFZn9rPXPK4k1AzwN2Qav2cDmK1EFdDJoX8eXaqPXSLXfUNk1UDfLPmn1p1NqOIQK9Gan9GxJMXieMKzQoeifeUCXnhh0KGbnSGcyKnxDFeH_5uCt6FK0DMESsTlxjvAFV7uR1D0P_-W1Hx8Mn43McIvmJz8PALWRyAdEKVX5i04GxpZDA2rHvDGVT9B1ReeK0EyxVZ5laJVm81a4GZmuOyXxkisSQOM6L7aXf5ewhJZOjbOk4VJy_Nr-oExa-SjwqpfiZvsthlDsjBsIA1TGsKqDAkrXHjx6qAoVqdlm1HFvaCfu-sXBE78ULHlYG50srwEGQ-lqxzhRcpR5vsvbjPZnXXzrhdwtxR4-ey70y7KUZbYuN-Mrt2cP-wCL1274GJAAkbCTr36fIQAI2MCf2EncbsVmZTvodIp8GKaPbpLSGPbXHuV16rJlP_rhaPML-24IB6-pBiprjjfsqGgIDDh8anHJid6sukhgpHnQ-G2zfrZO5brvF27IKcMjMik60bhS5giRs7KMrL0nCKI_otJzHi-cWh0LZhKvK7lnt-zwTfKl_NROTUFVV_zlF1dQoRsU9RMTMkDVpCInGBy6hwxRRsSlx6Fh-L8WC3IPe-tdqOpAEVOvcYQsaXNpbEvfnvTJ7rKvVO3nSA5pnWiksOsxVEVMzu6T78vLLHQbxj5xvyrl3_QOpR3Prez85fwpeTqFQ23v91_5dB7AR9j-y3e5704pjqzSTKAV87m00]--></g></svg>