<svg xmlns="http://www.w3.org/2000/svg" xmlns:xlink="http://www.w3.org/1999/xlink" contentStyleType="text/css" data-diagram-type="DESCRIPTION" height="418.75px" preserveAspectRatio="none" style="width:986px;height:418px;" version="1.1" viewBox="0 0 986 418" width="986.4583px" zoomAndPan="magnify"><title>Ivy Ware Solutions || County Fair - Horse Races System || Components Diagram</title><defs><linearGradient id="g1xkve7v6wunqp0" x1="50%" x2="50%" y1="0%" y2="100%"><stop offset="0%" stop-color="#FFFFFF"/><stop offset="100%" stop-color="#EEEEEE"/></linearGradient><linearGradient id="g1xkve7v6wunqp1" x1="50%" x2="50%" y1="0%" y2="100%"><stop offset="0%" stop-color="#F18E3E"/><stop offset="100%" stop-color="#EC7211"/></linearGradient></defs><g><rect fill="url(#g1xkve7v6wunqp0)" height="45.0846" id="_title" rx="4.1667" ry="4.1667" style="stroke:#EEEEEE;stroke-width:1.0417;" width="952.1993" x="9.8378" y="5.2083"/><text fill="#EC7211" font-family="Verdana" font-size="20.8333" font-weight="bold" lengthAdjust="spacing" textLength="931.366" x="20.2545" y="34.963">Ivy Ware Solutions || County Fair - Horse Races System || Components Diagram</text><!--cluster fe--><g id="cluster_fe"><path d="M10.4167,62.793 L87.6526,62.793 A6.25,6.25 0 0 1 91.8193,66.9596 L99.1109,94.0104 L706.25,94.0104 A4.1667,4.1667 0 0 1 710.4167,98.1771 L710.4167,252.3451 A4.1667,4.1667 0 0 1 706.25,256.5117 L10.4167,256.5117 A4.1667,4.1667 0 0 1 6.25,252.3451 L6.25,66.9596 A4.1667,4.1667 0 0 1 10.4167,62.793 " fill="#FFFFFF" fill-opacity="0.00000" style="stroke:#4E5D6C;stroke-width:2.0833;"/><line style="stroke:#4E5D6C;stroke-width:2.0833;" x1="6.25" x2="99.1109" y1="94.0104" y2="94.0104"/><text fill="#4E5D6C" font-family="Verdana" font-size="12.5" font-weight="bold" lengthAdjust="spacing" textLength="68.9026" x="15.625" y="81.6874">Front End</text></g><!--cluster sb--><g id="cluster_sb"><path d="M35.4167,114.8763 L127.3193,114.8763 A6.25,6.25 0 0 1 131.486,119.043 L138.7777,146.0938 L225,146.0938 A4.1667,4.1667 0 0 1 229.1667,150.2604 L229.1667,227.3451 A4.1667,4.1667 0 0 1 225,231.5117 L35.4167,231.5117 A4.1667,4.1667 0 0 1 31.25,227.3451 L31.25,119.043 A4.1667,4.1667 0 0 1 35.4167,114.8763 " fill="#FFFFFF" fill-opacity="0.00000" style="stroke:#4E5D6C;stroke-width:2.0833;"/><line style="stroke:#4E5D6C;stroke-width:2.0833;" x1="31.25" x2="138.7777" y1="146.0938" y2="146.0938"/><text fill="#4E5D6C" font-family="Verdana" font-size="12.5" font-weight="bold" lengthAdjust="spacing" textLength="83.5693" x="40.625" y="133.7708">Sales Booth</text></g><!--cluster ot--><g id="cluster_ot"><path d="M258.3333,114.8763 L397.8434,114.8763 A6.25,6.25 0 0 1 402.0101,119.043 L409.3018,146.0938 L491.6667,146.0938 A4.1667,4.1667 0 0 1 495.8333,150.2604 L495.8333,227.3451 A4.1667,4.1667 0 0 1 491.6667,231.5117 L258.3333,231.5117 A4.1667,4.1667 0 0 1 254.1667,227.3451 L254.1667,119.043 A4.1667,4.1667 0 0 1 258.3333,114.8763 " fill="#FFFFFF" fill-opacity="0.00000" style="stroke:#4E5D6C;stroke-width:2.0833;"/><line style="stroke:#4E5D6C;stroke-width:2.0833;" x1="254.1667" x2="409.3018" y1="146.0938" y2="146.0938"/><text fill="#4E5D6C" font-family="Verdana" font-size="12.5" font-weight="bold" lengthAdjust="spacing" textLength="131.1768" x="263.5417" y="133.7708">Redemption Booth</text></g><!--cluster at--><g id="cluster_at"><path d="M525,114.8763 L619.9422,114.8763 A6.25,6.25 0 0 1 624.1089,119.043 L631.4006,146.0938 L681.25,146.0938 A4.1667,4.1667 0 0 1 685.4167,150.2604 L685.4167,227.3451 A4.1667,4.1667 0 0 1 681.25,231.5117 L525,231.5117 A4.1667,4.1667 0 0 1 520.8333,227.3451 L520.8333,119.043 A4.1667,4.1667 0 0 1 525,114.8763 " fill="#FFFFFF" fill-opacity="0.00000" style="stroke:#4E5D6C;stroke-width:2.0833;"/><line style="stroke:#4E5D6C;stroke-width:2.0833;" x1="520.8333" x2="631.4006" y1="146.0938" y2="146.0938"/><text fill="#4E5D6C" font-family="Verdana" font-size="12.5" font-weight="bold" lengthAdjust="spacing" textLength="86.6089" x="530.2083" y="133.7708">Admin Tools</text></g><!--cluster be--><g id="cluster_be"><path d="M739.5833,114.8763 L812.3393,114.8763 A6.25,6.25 0 0 1 816.5059,119.043 L823.7976,146.0938 L975,146.0938 A4.1667,4.1667 0 0 1 979.1667,150.2604 L979.1667,408.0534 A4.1667,4.1667 0 0 1 975,412.2201 L739.5833,412.2201 A4.1667,4.1667 0 0 1 735.4167,408.0534 L735.4167,119.043 A4.1667,4.1667 0 0 1 739.5833,114.8763 " fill="#FFFFFF" fill-opacity="0.00000" style="stroke:#4E5D6C;stroke-width:2.0833;"/><line style="stroke:#4E5D6C;stroke-width:2.0833;" x1="735.4167" x2="823.7976" y1="146.0938" y2="146.0938"/><text fill="#4E5D6C" font-family="Verdana" font-size="12.5" font-weight="bold" lengthAdjust="spacing" textLength="64.4226" x="744.7917" y="133.7708">Back End</text></g><!--entity wsa--><g id="elem_wsa"><rect fill="#0000FF" height="56.2174" rx="4.1667" ry="4.1667" style="stroke:#EC7211;stroke-width:1.0417;" width="164.974" x="47.7188" y="158.6263"/><rect fill="#0000FF" height="10.4167" style="stroke:#EC7211;stroke-width:1.0417;" width="15.625" x="191.8594" y="163.8346"/><rect fill="#0000FF" height="2.0833" style="stroke:#EC7211;stroke-width:1.0417;" width="4.1667" x="189.776" y="165.918"/><rect fill="#0000FF" height="2.0833" style="stroke:#EC7211;stroke-width:1.0417;" width="4.1667" x="189.776" y="170.0846"/><text fill="#FFFFFF" font-family="Verdana" font-size="12.5" lengthAdjust="spacing" textLength="112.8906" x="68.5521" y="196.2708">WEB SELLING APP</text></g><!--entity trp--><g id="elem_trp"><rect fill="#0000FF" height="56.2174" rx="4.1667" ry="4.1667" style="stroke:#EC7211;stroke-width:1.0417;" width="208.1807" x="270.9063" y="158.6263"/><rect fill="#0000FF" height="10.4167" style="stroke:#EC7211;stroke-width:1.0417;" width="15.625" x="458.2537" y="163.8346"/><rect fill="#0000FF" height="2.0833" style="stroke:#EC7211;stroke-width:1.0417;" width="4.1667" x="456.1703" y="165.918"/><rect fill="#0000FF" height="2.0833" style="stroke:#EC7211;stroke-width:1.0417;" width="4.1667" x="456.1703" y="170.0846"/><text fill="#FFFFFF" font-family="Verdana" font-size="12.5" lengthAdjust="spacing" textLength="156.0974" x="291.7396" y="196.2708">Ticket Redemption Panel</text></g><!--entity ap--><g id="elem_ap"><rect fill="#0000FF" height="56.2174" rx="4.1667" ry="4.1667" style="stroke:#EC7211;stroke-width:1.0417;" width="130.3975" x="537.9271" y="158.6263"/><rect fill="#0000FF" height="10.4167" style="stroke:#EC7211;stroke-width:1.0417;" width="15.625" x="647.4913" y="163.8346"/><rect fill="#0000FF" height="2.0833" style="stroke:#EC7211;stroke-width:1.0417;" width="4.1667" x="645.408" y="165.918"/><rect fill="#0000FF" height="2.0833" style="stroke:#EC7211;stroke-width:1.0417;" width="4.1667" x="645.408" y="170.0846"/><text fill="#FFFFFF" font-family="Verdana" font-size="12.5" lengthAdjust="spacing" textLength="78.3142" x="558.7604" y="196.2708">Admin Panel</text></g><!--entity fa--><g id="elem_fa"><rect fill="#008000" height="56.2174" rx="4.1667" ry="4.1667" style="stroke:#EC7211;stroke-width:1.0417;" width="112.5509" x="752.0625" y="158.6263"/><rect fill="#008000" height="10.4167" style="stroke:#EC7211;stroke-width:1.0417;" width="15.625" x="843.78" y="163.8346"/><rect fill="#008000" height="2.0833" style="stroke:#EC7211;stroke-width:1.0417;" width="4.1667" x="841.6967" y="165.918"/><rect fill="#008000" height="2.0833" style="stroke:#EC7211;stroke-width:1.0417;" width="4.1667" x="841.6967" y="170.0846"/><text fill="#FFFFFF" font-family="Verdana" font-size="12.5" lengthAdjust="spacing" textLength="60.4675" x="772.8958" y="196.2708">Flask App</text></g><!--entity db--><g id="elem_db"><path d="M751.9792,350.793 C751.9792,340.3763 789.5829,340.3763 789.5829,340.3763 C789.5829,340.3763 827.1867,340.3763 827.1867,350.793 L827.1867,385.1354 C827.1867,395.5521 789.5829,395.5521 789.5829,395.5521 C789.5829,395.5521 751.9792,395.5521 751.9792,385.1354 L751.9792,350.793 " fill="url(#g1xkve7v6wunqp1)" style="stroke:#EC7211;stroke-width:1.0417;"/><path d="M751.9792,350.793 C751.9792,361.2096 789.5829,361.2096 789.5829,361.2096 C789.5829,361.2096 827.1867,361.2096 827.1867,350.793 " fill="#FFFFFF" fill-opacity="0.00000" style="stroke:#EC7211;stroke-width:1.0417;"/><text fill="#4E5D6C" font-family="Verdana" font-size="12.5" lengthAdjust="spacing" textLength="43.9575" x="767.6042" y="382.1874">SQLITE</text></g><!--entity api--><g id="elem_api"><ellipse cx="470.8333" cy="367.9701" fill="#A7280E" rx="8.3333" ry="8.3333" style="stroke:#D13212;stroke-width:1.0417;"/><text fill="#4E5D6C" font-family="Verdana" font-size="12.5" lengthAdjust="spacing" textLength="92.3218" x="424.6724" y="402.4895">HTTP/REST API</text></g><!--link fa to db--><g id="link_fa_db"><path d="M804.8378,221.1964 C801.2857,255.0714 796.5783,300.1187 793.047,333.827 " fill="#FFFFFF" fill-opacity="0.00000" id="fa-db" style="stroke:#EC7211;stroke-width:3.125;"/><polygon fill="#EC7211" points="805.4896,214.9805,800.3679,223.8698,804.9464,220.1604,808.6558,224.7389,805.4896,214.9805" style="stroke:#EC7211;stroke-width:3.125;"/><polygon fill="#EC7211" points="792.3958,340.043,797.5166,331.1531,792.9385,334.863,789.2286,330.2849,792.3958,340.043" style="stroke:#EC7211;stroke-width:3.125;"/><text fill="#4E5D6C" font-family="Verdana" font-size="12.5" lengthAdjust="spacing" textLength="161.7493" x="805.2083" y="291.0312">r&amp;w ticket data (raw SQL)</text></g><!--link fa to api--><g id="link_fa_api"><path d="M778.1051,219.4973 C753.1884,244.4557 717.7708,276.4284 677.0833,299.2201 C606.7188,338.6263 516.0007,358.2722 486.1257,364.0534 " fill="#FFFFFF" fill-opacity="0.00000" id="fa-api" style="stroke:#EC7211;stroke-width:3.125;"/><polygon fill="#EC7211" points="782.5208,215.0742,772.9485,218.7651,778.8411,218.7601,778.846,224.6527,782.5208,215.0742" style="stroke:#EC7211;stroke-width:3.125;"/><polygon fill="#EC7211" points="479.9896,365.2409,489.9855,367.5505,485.1031,364.2514,488.4022,359.369,479.9896,365.2409" style="stroke:#EC7211;stroke-width:3.125;"/></g><!--link wsa to api--><g id="link_wsa_api"><path d="M157.9077,219.9533 C180.7097,245.0887 213.2813,276.9701 252.0833,299.2201 C326.2396,341.7201 423.9516,359.609 455.3266,364.5674 " fill="#FFFFFF" fill-opacity="0.00000" id="wsa-api" style="stroke:#EC7211;stroke-width:3.125;"/><polygon fill="#EC7211" points="153.7083,215.3242,156.9213,225.0673,157.2078,219.1818,163.0934,219.4682,153.7083,215.3242" style="stroke:#EC7211;stroke-width:3.125;"/><polygon fill="#EC7211" points="461.5,365.543,452.8903,359.964,456.3555,364.73,451.5895,368.1951,461.5,365.543" style="stroke:#EC7211;stroke-width:3.125;"/><text fill="#4E5D6C" font-family="Verdana" font-size="12.5" lengthAdjust="spacing" textLength="109.4177" x="258.3333" y="291.0312">purchase request</text></g><!--link trp to api--><g id="link_trp_api"><path d="M374.3584,221.3645 C374.848,245.0312 378.25,273.1888 392.7083,299.2201 C409.3542,329.1784 439.2428,349.0027 456.0865,358.7215 " fill="#FFFFFF" fill-opacity="0.00000" id="trp-api" style="stroke:#EC7211;stroke-width:3.125;"/><polygon fill="#EC7211" points="374.2292,215.1159,370.2573,224.5751,374.3369,220.3231,378.5888,224.4027,374.2292,215.1159" style="stroke:#EC7211;stroke-width:3.125;"/><polygon fill="#EC7211" points="461.5,361.8451,455.4621,353.5507,456.9888,359.2421,451.2974,360.7687,461.5,361.8451" style="stroke:#EC7211;stroke-width:3.125;"/><text fill="#4E5D6C" font-family="Verdana" font-size="12.5" lengthAdjust="spacing" textLength="113.3057" x="398.9583" y="291.0312">validation request</text></g><!--link ap to api--><g id="link_ap_api"><path d="M579.5417,220.4065 C563.1667,243.0107 542.9792,270.7513 521.875,299.2201 C505.9167,320.7409 490.6373,340.9013 480.9498,353.6409 " fill="#FFFFFF" fill-opacity="0.00000" id="ap-api" style="stroke:#EC7211;stroke-width:3.125;"/><polygon fill="#EC7211" points="583.2083,215.3451,574.3341,220.4928,580.1528,219.5629,581.0827,225.3817,583.2083,215.3451" style="stroke:#EC7211;stroke-width:3.125;"/><polygon fill="#EC7211" points="477.1667,358.6159,486.158,353.6755,480.3193,354.4701,479.5247,348.6313,477.1667,358.6159" style="stroke:#EC7211;stroke-width:3.125;"/><text fill="#4E5D6C" font-family="Verdana" font-size="12.5" lengthAdjust="spacing" textLength="116.6748" x="545.8333" y="291.0312">access report data</text></g><!--SRC=[lPLHRvim4CVV_IckJ5hQ1xhtQQe63MdGKf81KfyFy18Ki9bj6aLfl_ji4nAYvJ697n36VxZ__NoSxzIArXHm8rqka2qf8QfK5ONmVGjlA2Wal6fLoPc4ZmzuvYrJMvXWAS25AHUIGemvbP1ifQ9rfwaRpYXJ4iObBWNMX93x1t2cQRhu5WT92juYT00bO5FgjT7Fgm_NdSJpA8KW6aEIUd5AI8Fv6fSKd8dWJ4702clf3uKT0Ed6gA1vXQ9aIv1j1ljN926Wn-XYtX9l5YJWp-VfTE3GnB2NWzC4AqtQvrojh5UPxQnD8yfxwk2y1JuamMmMHY-QzC9ADnBXIrQrT2y_NZwlcCmaZC9akez8Beqj3iR1wo8Dvr5Fx1HNJ0jQDwPs1youslq7B2tpDLKmq2-GqShgbMXwSDUWDSYXXtNX2DxuzJmUhwXB1YddbUn-nZDaEisH1ceO_jLW6Ai72gEybOhNL9Yu-ju-WCV79rtsy1sShDtgtR4xvsWrMgV6Ob7RcPLglregMjsz16suiD8SvQhSVnUbdLknsMgZrcL0wy6tFs_TeNe6DmdhUy-_plP5NzySscAcso8XWygOL2ZNu3LDrpLrTtc9Wo0Yf4256Ufp8Vaz2zF0h1QPtayj-U6wJtgY8OklcprVC7gu5xWnBpnqdVVpngaVWD-TZ9mpHdDx-1tzcpFBTDD-ehDfMf6lJCg2_csfLCHKqc3z7QjIfsaQIw_04m7c-WZjIzGI-GS0]--></g></svg>